<svg width="14" height="14" viewBox="0 0 14 14" fill="none" xmlns="http://www.w3.org/2000/svg">
<g clip-path="url(#clip0_256_1052)">
<path fill-rule="evenodd" clip-rule="evenodd" d="M5.92 1.94531C4.74774 1.94531 3.6235 2.41099 2.79459 3.2399C1.96568 4.06881 1.5 5.19306 1.5 6.36531V6.99931C1.5 8.33972 2.03247 9.62522 2.98028 10.573C3.92809 11.5208 5.2136 12.0533 6.554 12.0533H7C7.72227 12.0533 8.43747 11.9111 9.10476 11.6347C9.77205 11.3582 10.3784 10.9531 10.8891 10.4424C11.3998 9.93168 11.8049 9.32536 12.0813 8.65807C12.3577 7.99078 12.5 7.27558 12.5 6.55331V6.10631C12.5 5.9074 12.579 5.71663 12.7197 5.57598C12.8603 5.43533 13.0511 5.35631 13.25 5.35631C13.4489 5.35631 13.6397 5.43533 13.7803 5.57598C13.921 5.71663 14 5.9074 14 6.10631V6.55331C14 8.40983 13.2625 10.1903 11.9497 11.5031C10.637 12.8158 8.85652 13.5533 7 13.5533H6.554C4.81577 13.5533 3.14874 12.8628 1.91962 11.6337C0.690509 10.4046 0 8.73754 0 6.99931L0 6.36531C0 4.79523 0.623713 3.28946 1.73393 2.17924C2.84414 1.06903 4.34992 0.445313 5.92 0.445313C6.62947 0.445312 7.332 0.58512 7.98741 0.856745C8.64283 1.12837 9.2383 1.52649 9.73979 2.02835C10.2413 2.53021 10.639 3.12597 10.9101 3.78159C11.1812 4.43721 11.3205 5.13984 11.32 5.84931V6.27931C11.32 7.49825 10.8358 8.66726 9.97386 9.52917C9.11195 10.3911 7.94293 10.8753 6.724 10.8753H6.553C6.04413 10.8752 5.54026 10.7748 5.07018 10.58C4.60009 10.3851 4.17299 10.0996 3.81325 9.73964C3.45352 9.37972 3.1682 8.95247 2.97358 8.48229C2.77897 8.0121 2.67887 7.50818 2.679 6.99931V6.55331C2.67926 5.64414 3.04048 4.77227 3.68327 4.12929C4.32606 3.48631 5.19783 3.12484 6.107 3.12431C7.507 3.12431 8.643 4.25931 8.643 5.66031V5.91531C8.643 6.52001 8.40279 7.09993 7.9752 7.52752C7.54762 7.9551 6.96769 8.19531 6.363 8.19531H6.107C5.90809 8.19531 5.71732 8.11629 5.57667 7.97564C5.43602 7.83499 5.357 7.64422 5.357 7.44531C5.357 7.2464 5.43602 7.05563 5.57667 6.91498C5.71732 6.77433 5.90809 6.69531 6.107 6.69531H6.362C6.46443 6.69531 6.56586 6.67514 6.66049 6.63594C6.75513 6.59674 6.84111 6.53929 6.91354 6.46686C6.98597 6.39443 7.04343 6.30844 7.08263 6.21381C7.12182 6.11917 7.142 6.01774 7.142 5.91531V5.65931C7.142 5.08731 6.679 4.62331 6.107 4.62331C5.59565 4.62411 5.10552 4.8278 4.74422 5.18966C4.38293 5.55151 4.18 6.04196 4.18 6.55331V6.99931C4.18 7.6292 4.43022 8.23329 4.87562 8.67869C5.32102 9.12409 5.92511 9.37431 6.555 9.37431H6.726C7.54711 9.37431 8.33459 9.04813 8.9152 8.46751C9.49581 7.8869 9.822 7.09942 9.822 6.27831V5.84831C9.82239 5.33574 9.72174 4.82811 9.5258 4.35446C9.32986 3.88082 9.04247 3.45044 8.68007 3.08795C8.31767 2.72546 7.88737 2.43796 7.41377 2.24189C6.94018 2.04583 6.43258 1.94505 5.92 1.94531Z" fill="#FF7097"/>
</g>
<defs>
<clipPath id="clip0_256_1052">
<rect width="14" height="14" fill="white"/>
</clipPath>
</defs>
</svg>
